<svg width="1200" height="1200" viewBox="0 0 1200 1200" fill="none" xmlns="http://www.w3.org/2000/svg">
<path d="M599.992 75L74.9922 599.999L599.992 1125L1125.01 599.999L599.992 75ZM150.084 599.974L600.102 149.972L1050.1 599.974L600.085 1049.98L150.084 599.974ZM477.473 541.609L383.34 447.444L441.402 389.333C448.909 381.798 459.074 377.511 469.71 377.4C480.346 377.289 490.6 381.363 498.26 388.74C530.366 419.64 564.38 457.541 587.097 502.392C576.887 435.164 553.801 362.991 523.27 307.432L607.9 222.756L692.528 307.432C661.997 362.88 638.914 435.051 628.687 502.392C651.29 457.654 685.417 419.64 717.523 388.74C725.186 381.358 735.442 377.282 746.081 377.393C756.721 377.503 766.892 381.794 774.397 389.333L832.459 447.429H832.813L738.679 541.609V454.523C710.427 462.951 652.38 496.63 631.931 541.609H668.852V560.727H627.853L662.11 588.755C664.141 590.409 665.805 592.472 666.989 594.808C668.175 597.144 668.86 599.703 668.995 602.32C669.13 604.936 668.717 607.553 667.779 609.999C666.844 612.446 665.404 614.669 663.555 616.527L608.142 672.228L552.598 616.527C550.762 614.664 549.332 612.439 548.401 609.992C547.471 607.548 547.062 604.934 547.198 602.322C547.333 599.708 548.012 597.153 549.191 594.818C550.37 592.482 552.022 590.416 554.043 588.755L588.301 560.727H547.301V541.609H584.222C563.66 496.63 505.726 462.951 477.474 454.523L477.473 541.609ZM977.437 608.023L600.201 977.232L222.965 608.023H449.305L600.201 755.707L751.094 608.023H977.437Z" fill="white"/>
</svg>
