<svg xmlns="http://www.w3.org/2000/svg" viewBox="0 0 512 512"><title>Queens Park Rangers</title><path fill="currentColor" d="M256 0C187.62 0 123.34 26.63 74.98 74.98 26.64 123.34 0 187.62 0 256s26.63 132.66 74.98 181.02C123.34 485.38 187.62 512 256 512s132.67-26.62 181.02-74.98C485.37 388.67 512 324.38 512 256s-26.63-132.66-74.98-181.02C388.67 26.64 324.38 0 256 0m0 10.8c135.21 0 245.2 109.99 245.2 245.2 0 135.2-109.99 245.2-245.2 245.2S10.8 391.2 10.8 256C10.8 120.79 120.79 10.8 256 10.8m34.87 168.08v-7.97h-25.09s6.26 7.1 6.26 20.54v70.02c-2.8.45-5.67.69-8.6.69-.69 0-1.37-.03-2.06-.05.95-5.01 1.5-10.41 1.5-16.27 0-31.17-14.83-50.07-27.28-60.44-4.91-4.08-10.34-7.6-16.11-10.49l.01-18.41c6.9-6.74 20.75-16.71 42.65-16.71 20.94 0 39.88 11.78 49.23 30.96-7.56 1.96-14.25 4.8-20.51 8.13m150.14 172.71a9.6 9.6 0 0 0-3.39-.67c-1.38-.01-2.56.3-2.56.3s.63.46.84.62c1.75 1.28 7.26 6.39 4.41 18.49-1.87 7.95-12.08 22.7-37.68 22.77h-.01c-1.59-.01-3.25-.08-4.92-.21-5.04-.38-10.03-1.51-14.96-3.1 1.21-1.14 2.41-2.3 3.59-3.48 3.54-3.53 6.91-7.2 10.12-10.97-3.34-.22-6.66-.98-9.87-2.08-4.09 4.55-8.41 8.87-12.94 12.98-9.09-4.12-19.14-10.24-28.83-16.48-3.88-2.5-10.48-6.92-13.98-9.13-12.27-7.73-24.59-14.97-39.86-20.33v-25.51c24.5 5.74 48.03 22.8 59.06 30.72 1.37.98 2.85 2.09 4.44 3.27 10.38 7.74 29.69 21.59 49.02 21.59 24.97 0 26.08-16.23 25.95-17.2 0 0-.45.54-.91 1-1.41 1.36-5.03 4.56-13.68 4.26-1.55-.05-3.26-.29-5.04-.82 19.84-29.88 30.49-64.93 30.49-101.61 0-101.62-82.67-184.29-184.29-184.29S71.72 154.38 71.72 256s82.67 184.3 184.29 184.3c38.7 0 75.58-11.85 106.5-33.84-3.4-1.11-6.67-2.44-9.86-3.94-27.74 18.36-60.96 29.07-96.64 29.07-96.81 0-175.58-78.77-175.58-175.59S159.2 80.42 256.01 80.42c96.82 0 175.59 78.76 175.59 175.58 0 36.44-11.17 70.3-30.24 98.39-6.92-3.2-15.65-8.53-24.87-14.19-1.54-.95-3.16-1.98-4.76-3.01-13.62-8.84-23.65-14.21-31.65-16.96-.83-.28-2.88-.86-3.93-1.03v-.62c42.59-.75 76.22-33.08 76.22-76.62 0-43.92-34.12-74.08-77.43-74.08-1.03 0-2.04.02-3.04.04-12.1-24.98-38.25-40.49-69.57-40.49-16.32 0-30.86 4.11-42.89 10.24v-7.66h-25.1s6.19 5.66 6.19 19.11l-.02 18.89c-6.45-1.54-13.07-2.37-19.66-2.37-19.93 0-39.92 7.21-54.82 19.77-12.25 10.32-26.85 29.18-26.85 60.44 0 31 15.06 49.84 27.7 60.18 10.32 8.45 23.23 14.54 36.55 17.5 1.84-3.37 3.46-7.05 4.2-10.13-2.15-.45-3.85-1.02-5.71-1.67-7.08-2.8-11.26-8.09-11.26-14.4 0-9.31 6.72-12.62 11.25-12.62 6.39 0 13.06 4.28 13.31 16.75.7 32.86-35.39 55.4-38.65 57.38 3.23 3.73 6.62 7.32 10.18 10.74.86-.45 2.14-1.14 3-1.61 12.28-6.7 40.81-22.8 81.93-22.54 12.9.09 24.47 1.94 34.88 4.79v-15.97c-7.39-1.13-15.47-1.78-24.4-1.84-34.48-.22-62.79 10.16-80.18 19.14l-.22-.33c4.54-4.12 13.5-13.77 19.61-25.67 2.07 0 4.51-.11 6.61-.28.79-.72 1.61-1.65 2.33-2.61.99-1.33 3.15-4.67 3.93-9.12-2.76.63-5.59 1.06-8.5 1.27 1.13-3.75 1.85-7.62 1.96-11.52.3-10.24-2.28-18.83-7.49-24.19-4.45-4.58-10.66-7-17.94-7-9.5 0-21.44 6.39-22.22 20.52-.07 1.27.17 4.11.65 5.29l-.45.24c-12.73-12.55-20.53-31.18-20.53-52.68 0-39.12 26.46-68.61 61.57-68.61 35.37 0 61.05 28.85 61.05 68.61 0 4.52-.35 8.92-1.01 13.16-8.45-2.85-15.73-7.23-21.8-12.44v-47.01c-5.35-5.68-11.74-10.03-18.98-12.81v120.39c0 12.2-6.21 19.35-6.21 19.36h30.46s-2.79-3.48-4.35-10.39c5.32-2.74 10.34-5.98 14.87-9.7 7.07-5.82 14.89-14.32 20.4-26.15-6.65-.39-13.19-1.36-19.57-2.92-3.96 9.32-9.67 17.35-16.71 23.59v-35.52c12.17 5.55 26.48 9.23 42.89 9.23 13.46 0 21.95-2.5 28.72-4.92 27.46-9.77 48.07-35.68 48.07-68.85 0-4.65-.39-9.13-1.13-13.45-6.64-.41-16.53.96-20.86 2.34.56 3.62.85 7.4.85 11.3 0 24.2-10.75 43.46-26.93 53.61v-57.58c12.38-9.66 24.24-15.98 44.53-15.98 30.82 0 55.31 25.09 55.31 61.62 0 36.64-24.99 63.73-57.89 63.73-16.61 0-29.48-4.47-41.95-11.98v-18.64a89.3 89.3 0 0 1-18.91 4.09v70.68c0 12.19-6.26 19.36-6.26 19.36h31.19s-3.6-3.68-4.92-9.7c8.17 3.6 18.72 10.12 25.82 14.72 3.24 2.08 6.09 4.08 8.84 5.86 21.16 13.7 40.54 25.85 68.98 25.85 18.73 0 30.61-5.88 38.08-11.42 8.65-6.4 13.7-15.21 14.91-23.03 2.39-15.44-6.05-19.59-7.77-20.28M267.27 456.25q.82-1.86 3.12-2.01c1.33-.1 2.34.42 3.05 1.53s1.12 2.61 1.25 4.47c.14 2.04-.14 3.65-.83 4.85-.68 1.18-1.64 1.82-2.86 1.9-.99.07-1.92-.37-2.8-1.32-.89-.94-1.4-2.4-1.53-4.37-.15-2.14.06-3.83.6-5.05m8.02 26.71c-.81 1.36-1.79 2.09-2.95 2.17-1.33.09-2.44-.51-3.35-1.79-.9-1.29-1.45-3.27-1.63-5.96-.2-2.89.06-4.97.77-6.25.72-1.27 1.72-1.96 3.02-2.05 1.32-.09 2.45.46 3.39 1.67.93 1.19 1.49 3.17 1.68 5.93.19 2.82-.12 4.91-.93 6.28m7.57-10.71c-.5-.97-1.1-1.79-1.81-2.46s-1.5-1.18-2.36-1.56c-.87-.36-1.68-.59-2.48-.67l-.03-.36c.78-.22 1.5-.56 2.19-1.01a7 7 0 0 0 1.76-1.68c.48-.67.84-1.44 1.09-2.31.25-.86.34-1.85.26-2.94a7.04 7.04 0 0 0-.87-2.96c-.5-.92-1.23-1.7-2.18-2.35-.95-.66-2.13-1.15-3.53-1.48s-3.03-.44-4.85-.31c-1.57.11-3 .38-4.28.83-1.28.44-2.38 1.06-3.3 1.84-.92.77-1.62 1.7-2.09 2.77-.47 1.08-.67 2.27-.57 3.6.06.92.28 1.77.65 2.54.39.78.85 1.45 1.42 2.03.57.57 1.23 1.06 1.97 1.43.74.38 1.51.6 2.3.69l.02.35c-.9.27-1.76.68-2.58 1.22-.82.56-1.51 1.24-2.09 2.04-.57.81-1.02 1.75-1.33 2.83-.33 1.09-.44 2.31-.35 3.66.12 1.67.52 3.11 1.19 4.32.69 1.22 1.58 2.22 2.69 2.97 1.1.76 2.39 1.29 3.87 1.56 1.47.27 3.05.35 4.75.23 1.73-.11 3.33-.43 4.8-.94 1.46-.51 2.7-1.25 3.71-2.22s1.77-2.15 2.3-3.53c.51-1.39.72-2.96.59-4.73-.08-1.29-.37-2.43-.86-3.4m-85.91-25.4c-2.57.33-5.28.58-8.09.76.23.32.5.81.82 1.49.31.68.59 1.31.81 1.9.5-.06 1.08-.14 1.72-.26s1.27-.24 1.88-.36c.62-.13 1.2-.24 1.72-.33.53-.09.92-.16 1.17-.2l-4 13.85c-.4 1.37-.82 2.71-1.26 4.04s-.85 2.59-1.25 3.76c-.4 1.18-.77 2.26-1.12 3.22s-.61 1.7-.8 2.22c.67.11 1.33.27 1.97.45.64.19 1.28.37 1.93.56.66.19 1.3.38 1.92.56s1.25.4 1.88.65c.6-2.41 1.13-4.55 1.62-6.39q.72-2.76 1.47-5.37l1.08-3.73.88-2.99c.35-1.24.74-2.51 1.15-3.81.42-1.3.83-2.58 1.24-3.84.43-1.26.83-2.49 1.23-3.67.39-1.18.77-2.25 1.12-3.21l-.82-.66c-2.93.57-5.69 1.02-8.27 1.36m126.13 27.34c-.14-.56-.26-1.1-.33-1.63-.09-.53-.18-1.07-.29-1.64-2.34.77-4.64 1.47-6.93 2.09-2.28.62-4.61 1.25-6.98 1.89l-.07-.08c2.25-3.18 4.05-5.93 5.4-8.24 1.36-2.31 2.38-4.35 3.04-6.08s1.04-3.24 1.14-4.51q.14-1.91-.27-3.54c-.25-.95-.68-1.89-1.28-2.81s-1.45-1.68-2.54-2.3-2.45-1-4.09-1.14c-1.63-.15-3.59.07-5.86.66-2.91.74-5.05 1.93-6.42 3.58-1.37 1.66-2.12 3.45-2.26 5.38.8.36 1.58.71 2.33 1.06.75.36 1.54.76 2.37 1.22l.45-.28c-.17-.65-.28-1.41-.37-2.27q-.12-1.29.15-2.55c.17-.83.49-1.58.97-2.25.48-.66 1.18-1.11 2.11-1.36q.94-.23 1.92-.09c.66.09 1.3.36 1.93.8.61.44 1.18 1.07 1.69 1.91.52.84.95 1.93 1.29 3.28.41 1.62.58 3.3.5 5.05-.08 1.74-.46 3.63-1.13 5.66-.68 2.04-1.65 4.26-2.93 6.68s-2.9 5.11-4.84 8.06l.53 2.09c1.76-.52 3.53-1.01 5.32-1.47 1.78-.46 3.56-.91 5.34-1.37 1.88-.48 3.72-.95 5.54-1.42 1.81-.46 3.67-.9 5.56-1.32-.14-.45-.31-.93-.5-1.45-.18-.51-.35-1.04-.49-1.61m-86.84-14.14c-.25 2.03-.81 3.56-1.71 4.61-.89 1.04-1.95 1.48-3.16 1.35-.98-.12-1.82-.72-2.51-1.82-.7-1.09-.93-2.62-.7-4.58.25-2.13.76-3.75 1.52-4.86.77-1.11 1.92-1.58 3.44-1.4 1.31.16 2.22.85 2.71 2.07s.63 2.77.41 4.63m-1.53 16.43c-.32 2.81-1.02 4.81-2.07 6-1.04 1.2-2.14 1.73-3.29 1.59-1.33-.15-2.31-.94-2.97-2.37-.65-1.44-.82-3.49-.51-6.16.35-2.87.98-4.87 1.92-6 .93-1.12 2.05-1.61 3.33-1.45q1.98.23 3.03 2.25c.7 1.35.88 3.4.56 6.14m6.37-21.93c-.82-.82-1.88-1.52-3.2-2.1-1.32-.59-2.9-.99-4.72-1.21-1.56-.17-3.01-.17-4.35.04-1.34.2-2.54.6-3.59 1.19-1.05.6-1.9 1.38-2.57 2.35-.66.97-1.07 2.11-1.22 3.43-.11.92-.05 1.79.18 2.62.22.83.57 1.58 1.02 2.26.45.66 1.01 1.25 1.67 1.76s1.37.87 2.13 1.1l-.04.35c-.93.1-1.85.35-2.76.74s-1.71.93-2.43 1.61c-.72.69-1.33 1.54-1.84 2.54s-.84 2.17-1.01 3.53c-.19 1.66-.07 3.14.38 4.47a8.7 8.7 0 0 0 2.09 3.41c.95.95 2.12 1.7 3.52 2.24 1.39.54 2.93.9 4.63 1.11 1.72.2 3.35.18 4.88-.04 1.54-.24 2.89-.74 4.07-1.51 1.17-.77 2.14-1.79 2.9-3.05.77-1.26 1.25-2.78 1.46-4.53.15-1.29.07-2.46-.23-3.5-.31-1.05-.74-1.96-1.32-2.75a8.2 8.2 0 0 0-2.03-1.97c-.78-.52-1.56-.89-2.31-1.12l.03-.36c.8-.07 1.58-.27 2.34-.59.76-.33 1.44-.77 2.03-1.34.6-.56 1.1-1.25 1.51-2.05.4-.81.67-1.76.79-2.84.13-1.05.03-2.08-.3-3.08-.33-.99-.91-1.9-1.71-2.71M127.1 75.51c1.06 1.64 2.24 2.77 3.54 3.4 1.31.64 2.66 1.01 4.06 1.11 1.41.11 2.84.05 4.28-.18q2.15-.33 4.08-.45c1.29-.09 2.47.01 3.54.29s1.96.96 2.66 2.04c.78 1.21 1.04 2.5.78 3.89-.25 1.38-1.25 2.63-2.96 3.74-.86.56-1.71.93-2.55 1.14-.84.2-1.65.24-2.41.13-.76-.12-1.48-.35-2.16-.7-.67-.35-1.27-.81-1.8-1.37l-.81.53c.49 1.06.9 2.08 1.24 3.03.34.96.68 2.04 1.05 3.22.94.08 2.12-.11 3.55-.57 1.43-.45 2.92-1.19 4.46-2.19 1.71-1.11 3.12-2.33 4.22-3.68 1.1-1.34 1.88-2.75 2.33-4.24.45-1.5.56-3.01.34-4.55-.22-1.53-.8-3.02-1.72-4.44-1.07-1.64-2.25-2.76-3.57-3.39s-2.7-.99-4.14-1.09c-1.45-.09-2.89-.03-4.32.19-1.45.22-2.83.37-4.15.46-1.32.08-2.52.01-3.6-.25s-1.96-.92-2.65-1.97c-.66-1.03-.83-2.19-.51-3.51.33-1.3 1.15-2.39 2.47-3.24 2.54-1.65 5.07-1.54 7.58.33l.64-.42c-.33-1.13-.59-2.06-.81-2.79-.21-.73-.4-1.52-.57-2.34-1.25-.12-2.58 0-3.98.39-1.4.38-2.86 1.07-4.41 2.07-1.28.83-2.38 1.82-3.27 2.97-.9 1.15-1.54 2.4-1.93 3.74-.39 1.35-.47 2.77-.26 4.25.21 1.49.8 2.97 1.76 4.45m-35.4 31.15c1.8 1.87 3.64 3.84 5.53 5.92 1.89 2.07 3.62 4.02 5.21 5.83 1.58 1.81 2.91 3.35 4 4.62 1.08 1.27 1.7 2.03 1.84 2.27.52-.6 1.06-1.16 1.62-1.7.26-.26.55-.54.84-.82.3-.29.61-.54.95-.78-.28-.25-.65-.58-1.11-1.01s-1.06-.99-1.77-1.67c-.7-.69-1.56-1.54-2.57-2.56-1-1.02-2.21-2.26-3.64-3.73l-4.11-4.27c-.71-.73-1.41-1.46-2.08-2.18s-1.34-1.45-2.01-2.18c11.41.48 22.48 1.23 33.21 2.23.36-.45.82-.94 1.35-1.45.52-.5 1.04-.96 1.58-1.38l-4.25-4.42c-1.71-1.75-3.31-3.42-4.8-4.99-1.48-1.57-2.98-3.17-4.47-4.81-1.48-1.64-3.06-3.4-4.73-5.26-1.66-1.88-3.51-3.99-5.54-6.33-.57.78-1.06 1.38-1.48 1.78s-1.03.88-1.83 1.42c.29.19.8.63 1.51 1.3.73.68 1.57 1.5 2.53 2.47s2 2.02 3.14 3.18c1.13 1.14 2.29 2.32 3.44 3.52l3.45 3.57 3.08 3.19q-8.41-.47-16.47-.99c-5.37-.34-10.83-.71-16.36-1.09-.57.79-1.07 1.38-1.48 1.78s-1.03.87-1.83 1.41c.88.86 1.89 1.84 3.06 2.95 1.16 1.1 2.55 2.5 4.19 4.18m127.25-79.98c-.32.12-.63.24-.92.34s-.62.18-.94.23c-.35.06-.67.1-.98.1-.3 0-.64-.01-.99-.01-.41 2.04-.86 4.24-1.38 6.61-.5 2.37-1.02 4.76-1.55 7.2-.54 2.45-1.07 4.86-1.61 7.25s-1.05 4.63-1.52 6.71c-.47 2.09-.9 3.96-1.31 5.62s-.74 2.96-1 3.9c.46-.15.9-.26 1.31-.33.39-.07.79-.13 1.19-.19.41-.07.79-.15 1.19-.21.38-.07.78-.1 1.19-.11.19-1.72.43-3.49.71-5.3.27-1.81.6-3.63.98-5.45.86-.18 1.73-.36 2.61-.53.86-.16 1.73-.31 2.6-.46 1.07-.19 2.15-.37 3.23-.54s2.16-.33 3.23-.47c.93 1.6 1.83 3.21 2.7 4.82.86 1.61 1.71 3.2 2.53 4.76.69-.2 1.4-.35 2.12-.48.72-.12 1.43-.25 2.14-.38.71-.12 1.42-.23 2.14-.35.72-.13 1.49-.22 2.31-.29-1.3-1.79-2.8-3.98-4.45-6.61a544 544 0 0 1-5.17-8.31c-1.78-2.92-3.55-5.9-5.33-8.94-1.79-3.05-3.47-5.91-5.03-8.58m-2.16 10.37c1.16 1.88 2.26 3.73 3.31 5.58 1.06 1.83 2.14 3.72 3.22 5.64l-9.2 1.57c.38-2.17.8-4.31 1.23-6.41a197 197 0 0 1 1.44-6.38m-26.7-3.03c-1.4.09-3.25.51-5.55 1.27-1.16.39-2.34.83-3.53 1.31-1.18.48-2.34.91-3.48 1.28-.81.27-1.54.48-2.19.65-.67.16-1.29.31-1.86.42.82 2.07 1.61 4.13 2.37 6.19a206 206 0 0 1 2.45 7.12l2.2 6.6c.89 2.68 1.65 5.07 2.27 7.17.62 2.11 1.21 4.18 1.75 6.23.53-.24 1.1-.47 1.75-.68.64-.22 1.38-.45 2.19-.73.8-.26 1.53-.5 2.18-.71.64-.22 1.25-.39 1.82-.51-.95-2.3-1.83-4.65-2.67-7.04-.85-2.39-1.68-4.8-2.48-7.22l2.46-.83c1.82-.6 3.42-1.34 4.81-2.23 1.39-.9 2.5-1.93 3.35-3.13.84-1.19 1.35-2.56 1.52-4.09.18-1.52-.03-3.21-.64-5.05-.49-1.45-1.14-2.61-1.97-3.49-.83-.87-1.9-1.56-3.21-2.06-.96-.4-2.13-.56-3.54-.47m-3.93 4.18c.71.01 1.38.2 2.02.55.63.34 1.22.88 1.78 1.63.54.75 1.03 1.74 1.44 2.97.51 1.55.7 2.88.56 3.96-.14 1.09-.49 2-1.04 2.74-.54.74-1.22 1.32-2.02 1.77-.8.44-1.6.81-2.41 1.07-.75-2.26-1.48-4.51-2.22-6.77-.73-2.25-1.46-4.55-2.2-6.88.12-.08.27-.15.43-.2s.31-.12.48-.17l1.12-.37c.67-.22 1.36-.32 2.06-.3M72.81 138.42l5.7 3.98q3.48 2.42 6.12 4.38c1.77 1.3 3.48 2.62 5.15 3.92.12-.24.29-.53.51-.86.21-.34.53-.81.96-1.44.45-.63 1.03-1.46 1.75-2.5.74-1.05 1.7-2.43 2.89-4.14 1.35-1.92 2.41-3.44 3.2-4.53.78-1.1 1.44-2 2.01-2.75-.22-.05-.46-.16-.72-.31-.28-.14-.64-.37-1.08-.68-.45-.32-.79-.57-1.02-.78-.23-.2-.48-.44-.75-.71-.93 1.76-1.92 3.46-2.94 5.12-1.03 1.65-2.1 3.26-3.21 4.86-1.74-1.09-3.51-2.27-5.32-3.54-.9-.62-1.79-1.24-2.67-1.89-.88-.64-1.77-1.26-2.66-1.89 2.2-3.15 4.53-6.24 7.01-9.24-.48-.26-.87-.45-1.13-.57-.27-.13-.51-.27-.74-.42-.27-.19-.53-.4-.76-.6-.24-.2-.56-.51-.97-.93-1.03 1.65-2.03 3.24-2.99 4.74-.97 1.5-2.07 3.17-3.31 5.01q-2.31-1.62-4.56-3.21c-1.5-1.07-2.97-2.2-4.43-3.37.21-.32.59-.82 1.12-1.53.54-.7 1.15-1.49 1.84-2.36.69-.86 1.39-1.76 2.13-2.69.72-.92 1.4-1.77 2.02-2.54-.35-.16-.66-.31-.93-.46-.26-.15-.62-.37-1.08-.69-.72-.5-1.26-.97-1.64-1.4-.32.61-1.04 1.72-2.11 3.36-1.08 1.63-2.35 3.48-3.78 5.55-.88 1.25-1.78 2.47-2.69 3.66-.91 1.2-1.83 2.41-2.73 3.64q2.83 1.75 5.58 3.57c1.84 1.21 3.91 2.62 6.23 4.24m2.78 39.05c.16-.36.4-.88.74-1.57.33-.69.77-1.61 1.32-2.74.56-1.16 1.29-2.68 2.2-4.55a465 465 0 0 1 2.43-4.98c.6-1.21 1.12-2.21 1.55-3.03-.22-.02-.47-.09-.76-.19s-.68-.28-1.17-.51c-.5-.23-.87-.44-1.13-.6-.26-.17-.54-.36-.85-.59a84 84 0 0 1-2.1 5.52c-.75 1.79-1.55 3.56-2.39 5.31q-2.83-1.2-5.82-2.64c-.98-.48-1.96-.95-2.93-1.45-.97-.49-1.95-.97-2.93-1.44 1.67-3.46 3.49-6.88 5.45-10.24-.52-.17-.92-.31-1.21-.38q-.42-.12-.78-.3c-.31-.15-.6-.31-.86-.47s-.63-.42-1.11-.77c-.74 1.8-1.48 3.52-2.2 5.15-.71 1.64-1.54 3.47-2.47 5.48-1.68-.82-3.35-1.64-5-2.45s-3.28-1.69-4.91-2.63c.16-.34.45-.89.86-1.68.42-.78.9-1.65 1.44-2.62.55-.96 1.1-1.96 1.68-2.99.57-1.03 1.1-1.97 1.59-2.83-.37-.1-.69-.2-.99-.31q-.43-.17-1.17-.51c-.8-.38-1.41-.76-1.85-1.12-.23.65-.74 1.86-1.55 3.65-.81 1.78-1.76 3.81-2.85 6.08-.67 1.38-1.36 2.73-2.08 4.05-.71 1.32-1.41 2.65-2.11 4.02 2.04.86 4.07 1.73 6.07 2.64 2.01.9 4.28 1.96 6.83 3.2l6.25 3.02c2.54 1.22 4.79 2.34 6.75 3.35 1.95 1.01 3.85 2.03 5.7 3.05q.14-.39.36-.93m-32.1 49.44c-3.06-.14-5.76.25-8.09 1.16-2.35.89-4.32 2.18-5.89 3.84-1.57 1.67-2.78 3.67-3.63 5.98-.86 2.31-1.34 4.84-1.45 7.55-.14 2.96.21 5.67 1.06 8.12.84 2.46 2.05 4.57 3.65 6.35 1.59 1.78 3.47 3.19 5.63 4.22 2.18 1.03 4.52 1.61 7.03 1.72 3.17.14 5.92-.24 8.27-1.16 2.34-.92 4.29-2.21 5.84-3.87 1.56-1.65 2.73-3.6 3.52-5.84.78-2.25 1.22-4.62 1.33-7.11.96-1.79 1.97-3.86 2.67-5.07.7-1.22 1.35-2.56 2.04-3.68.54-.9 1.13-1.9 1.68-2.76-.62-.96-1.07-2.06-1.59-3.4-.57-1.52-1.13-3.62-1.27-4.02-.16.49-.64 2.31-.9 3.08-.43 1.26-.87 2.79-1.47 4.54-.49 1.39-1 2.69-1.6 4.14-.63-2.07-1.47-3.94-2.54-5.59a18.6 18.6 0 0 0-3.77-4.25 17 17 0 0 0-4.84-2.79c-1.77-.68-3.67-1.08-5.68-1.16m-1.44 8.32c2.79.12 5.19.54 7.21 1.27 2.01.72 3.65 1.63 4.93 2.72 1.28 1.1 2.22 2.37 2.79 3.8.59 1.42.86 2.88.79 4.41-.07 1.43-.39 2.79-.96 4.06s-1.43 2.36-2.62 3.3c-1.18.94-2.73 1.65-4.63 2.15-1.89.49-4.19.69-6.91.56-2.18-.09-4.22-.43-6.12-1.01s-3.55-1.38-4.93-2.39c-1.39-1.02-2.47-2.24-3.24-3.65-.77-1.42-1.12-2.99-1.04-4.73.07-1.63.48-3.12 1.19-4.46a10.2 10.2 0 0 1 2.99-3.41c1.27-.91 2.79-1.6 4.57-2.06 1.77-.47 3.77-.65 5.98-.56m13.04-49.88c-2.14-.57-4.16-1.15-6.08-1.72-1.9-.57-3.64-1.1-5.22-1.6-1.58-.49-2.97-.93-4.16-1.33-1.21-.39-2.16-.72-2.86-.98-.05.45-.1.87-.17 1.28-.05.41-.14.82-.25 1.25q-.15.54-.39 1.17c-.17.41-.35.84-.54 1.28 2.31.48 4.6 1 6.86 1.54 2.28.53 4.55 1.11 6.81 1.72 2.31.63 4.5 1.29 6.59 1.99 2.08.71 3.86 1.57 5.36 2.58 1.49 1.02 2.57 2.22 3.25 3.61.69 1.38.77 3.06.24 5.03-.44 1.61-.99 2.98-1.64 4.11-.66 1.13-1.6 1.97-2.83 2.54q-1.84.85-4.77.75c-1.96-.07-4.44-.5-7.43-1.31-2.83-.76-5.61-1.54-8.34-2.36-2.72-.8-5.63-1.8-8.74-2.99-.11.68-.23 1.37-.37 2.07-.13.7-.29 1.38-.47 2.05-.18.65-.38 1.32-.62 2s-.47 1.33-.71 1.97c.83.16 2.08.44 3.73.85s3.81.97 6.47 1.69c.89.24 1.75.49 2.57.72.81.24 1.67.48 2.55.72.89.23 1.85.51 2.88.8s2.2.62 3.52.97c2.33.63 4.42.78 6.25.45 1.84-.34 3.45-1.03 4.86-2.1 1.4-1.07 2.56-2.47 3.5-4.17s1.69-3.61 2.26-5.71q1.92-7.16-.81-11.85c-1.81-3.14-5.58-5.48-11.3-7.02m395.66-11.22c-2.66.98-5.02 1.83-7.1 2.54s-4.13 1.37-6.15 2c.12.24.27.54.41.9.16.36.37.9.64 1.62q.39 1.08 1.05 2.85.68 1.81 1.77 4.74c.81 2.2 1.44 3.94 1.89 5.2.46 1.28.83 2.35 1.11 3.22.17-.14.39-.27.67-.41s.67-.31 1.18-.49c.51-.19.92-.32 1.21-.4.3-.07.64-.14 1.01-.21-.9-1.78-1.75-3.55-2.52-5.33-.77-1.79-1.49-3.59-2.16-5.41 1.87-.81 3.85-1.59 5.92-2.36 1.03-.38 2.05-.75 3.08-1.12 1.02-.36 2.05-.73 3.07-1.11 1.35 3.61 2.55 7.28 3.61 11.03q.72-.38 1.11-.6c.25-.15.51-.27.76-.37.32-.11.63-.21.92-.29.31-.08.75-.16 1.32-.27-.77-1.78-1.49-3.5-2.18-5.15s-1.43-3.51-2.23-5.57c1.75-.65 3.5-1.29 5.23-1.92 1.72-.62 3.49-1.19 5.29-1.72.14.36.34.95.62 1.79.27.85.57 1.79.89 2.85.32 1.07.65 2.16 1 3.28.34 1.13.65 2.17.94 3.12.32-.19.63-.37.9-.5.28-.14.67-.3 1.18-.49.83-.31 1.52-.49 2.08-.56-.3-.61-.81-1.83-1.54-3.65-.73-1.81-1.53-3.91-2.4-6.27-.55-1.43-1.03-2.87-1.5-4.3-.45-1.43-.93-2.87-1.43-4.31-2.03.88-4.07 1.73-6.11 2.55s-4.38 1.72-7.04 2.71zm-61.25-63.98c.58.53 1.14 1.07 1.68 1.65.25.28.51.56.79.86s.53.62.76.97c.25-.28.59-.65 1.04-1.1.44-.45 1.01-1.03 1.7-1.73.7-.7 1.57-1.54 2.61-2.53 1.03-.98 2.3-2.17 3.8-3.56l4.34-4.04c.74-.69 1.48-1.37 2.22-2.03a141 141 0 0 1 2.22-1.96c-.7 11.39-1.66 22.44-2.86 33.14.44.38.92.85 1.43 1.39.48.53.93 1.06 1.35 1.61l4.49-4.18c1.79-1.67 3.48-3.23 5.08-4.69q2.4-2.19 4.89-4.38c1.67-1.46 3.45-2.99 5.36-4.63 1.9-1.63 4.05-3.43 6.43-5.42-.77-.58-1.35-1.08-1.75-1.51-.39-.42-.85-1.04-1.38-1.85-.2.28-.64.77-1.34 1.48-.69.71-1.52 1.54-2.51 2.48-.98.93-2.07 1.96-3.24 3.08-1.17 1.11-2.36 2.24-3.59 3.38l-3.62 3.37-3.26 3.02c.42-5.6.86-11.08 1.3-16.45.45-5.37.92-10.81 1.41-16.34-.77-.58-1.36-1.08-1.75-1.51-.4-.42-.85-1.04-1.38-1.85q-1.32 1.29-3 3c-1.13 1.13-2.55 2.5-4.27 4.11-1.89 1.76-3.9 3.56-6.02 5.42a449 449 0 0 1-5.93 5.09c-1.84 1.54-3.4 2.85-4.7 3.91-1.29 1.06-2.05 1.66-2.3 1.8M379.23 77.9c1.8-1.16 3.65-2.31 5.56-3.44q-.8 3.19-1.65 6.27-.85 3.06-1.77 6.24l-7.59-5.47c1.83-1.24 3.64-2.45 5.45-3.6m-21.15 8.69c.42.23.8.46 1.13.7s.66.48 1 .71c.33.25.65.48.97.71.31.23.61.49.91.79 1.37-1.07 2.79-2.15 4.27-3.22q2.23-1.59 4.59-3.12c.73.49 1.47.99 2.2 1.5.72.5 1.44 1.02 2.16 1.53.89.64 1.77 1.28 2.64 1.94.87.65 1.74 1.31 2.6 1.98-.49 1.78-1.01 3.55-1.56 5.29-.55 1.75-1.08 3.46-1.62 5.13.61.37 1.22.76 1.82 1.19.59.43 1.18.85 1.76 1.27.57.42 1.16.85 1.76 1.28.59.43 1.2.9 1.82 1.44.36-2.18.89-4.78 1.6-7.79.71-3.02 1.48-6.19 2.33-9.51.83-3.32 1.72-6.68 2.65-10.08.92-3.42 1.8-6.61 2.61-9.59-.32-.14-.62-.28-.9-.43-.27-.13-.55-.3-.82-.5-.29-.2-.53-.41-.75-.63s-.45-.46-.68-.71c-1.75 1.13-3.64 2.34-5.68 3.64-2.06 1.29-4.13 2.6-6.25 3.93s-4.21 2.64-6.3 3.93c-2.09 1.28-4.03 2.49-5.86 3.61a295 295 0 0 1-4.93 2.99c-1.47.87-2.62 1.54-3.47 2.02m66.48 49.39a15.7 15.7 0 0 0-2.44 6.35c-.34 2.3-.21 4.7.41 7.21.61 2.51 1.68 5.02 3.18 7.53 1.16 1.92 2.49 3.78 4 5.56 1.5 1.78 3.12 3.46 4.83 5.05.23-.22.65-.52 1.26-.91.62-.39 1.3-.81 2.03-1.25l1.44-.87c.7-.42 1.45-.85 2.23-1.31.78-.45 1.52-.86 2.22-1.25.71-.38 1.34-.71 1.89-.98s.96-.45 1.23-.53c-.23-.26-.53-.63-.88-1.11s-.84-1.26-1.47-2.3c-.55-.91-.95-1.61-1.19-2.12s-.43-.93-.54-1.26c-.4.28-1.13.8-2.2 1.56s-2.79 1.86-5.15 3.28c-.64.39-1.22.73-1.76 1.03-.53.3-.99.53-1.38.68-.22-.1-.5-.31-.83-.64-.33-.31-.66-.68-.99-1.1-.33-.41-.67-.85-1-1.31-.33-.45-.61-.87-.84-1.25-1.01-1.69-1.62-3.38-1.79-5.06-.18-1.68.01-3.3.56-4.86.55-1.57 1.43-3.04 2.62-4.41 1.2-1.38 2.67-2.59 4.43-3.65 2.3-1.39 4.5-2.27 6.59-2.65q3.13-.58 5.79-.06c1.76.35 3.32 1.02 4.69 2.01 1.36.98 2.46 2.15 3.26 3.49 1.21 2.02 1.84 3.96 1.87 5.85.04 1.88-.31 3.69-1.06 5.4l.37.62c.84-.31 1.7-.58 2.56-.79.86-.22 1.73-.45 2.64-.67-.1-2.08-.41-4.08-.94-5.97-.52-1.89-1.44-3.94-2.78-6.16q-2.31-3.85-5.37-6.54c-2.03-1.8-4.23-3.1-6.58-3.88-2.36-.79-4.87-1-7.51-.68-2.64.34-5.34 1.35-8.12 3.01-2.24 1.35-4 3-5.28 4.94m63.32 114.75q-.73-2.07-2.13-3.63a10.3 10.3 0 0 0-3.45-2.49c-1.38-.62-2.95-.91-4.71-.89-1.95.02-3.53.41-4.77 1.17-1.23.77-2.27 1.71-3.1 2.85a18.4 18.4 0 0 0-2.14 3.71c-.57 1.32-1.17 2.56-1.79 3.69s-1.33 2.08-2.14 2.83c-.81.76-1.86 1.15-3.16 1.16q-2.15.03-3.69-1.41c-1.03-.96-1.55-2.46-1.58-4.5-.01-1.02.12-1.95.4-2.77s.67-1.52 1.18-2.11c.5-.58 1.08-1.06 1.74-1.45.66-.38 1.37-.64 2.12-.79l-.01-.97c-1.16-.15-2.24-.35-3.24-.57a88 88 0 0 1-3.27-.83c-.57.75-1.05 1.86-1.42 3.3-.37 1.46-.55 3.1-.53 4.94.02 2.05.3 3.89.85 5.54.55 1.64 1.33 3.05 2.35 4.24 1.02 1.18 2.23 2.08 3.66 2.71 1.42.63 2.98.93 4.68.92q2.91-.03 4.77-1.2c1.23-.78 2.27-1.76 3.13-2.92.85-1.18 1.57-2.43 2.15-3.76.58-1.34 1.19-2.58 1.83-3.75q.94-1.74 2.13-2.91c.79-.78 1.83-1.17 3.09-1.18 1.22-.02 2.3.47 3.23 1.44.92.98 1.4 2.25 1.42 3.82.03 3.03-1.41 5.1-4.32 6.23l.01.76q1.68.49 2.79.81c.73.21 1.49.47 2.27.77.78-.99 1.38-2.19 1.81-3.57.42-1.38.63-2.99.61-4.83a13.4 13.4 0 0 0-.77-4.36M257.13 23.82c-1.74 0-3.19.05-4.37.13-1.17.09-2.22.14-3.14.14-.84 0-1.61-.02-2.29-.08-.68-.04-1.32-.1-1.89-.17.14 2.21.23 4.42.3 6.62.07 2.19.11 4.7.11 7.53l.01 6.94c0 2.82-.03 5.34-.09 7.53-.08 2.2-.17 4.35-.31 6.47.58-.07 1.21-.11 1.89-.11h4.6c.68-.01 1.32.04 1.89.1-.14-2.11-.24-4.26-.31-6.46-.07-2.19-.11-4.71-.11-7.53v-2.1h.45l9.18 16.08c.78-.07 1.55-.1 2.31-.1h2.32c.79 0 1.56-.01 2.31-.01s1.51.04 2.29.11c-1.88-2.82-3.76-5.68-5.62-8.56-1.88-2.87-3.63-5.76-5.27-8.65 2.54-.65 4.51-1.75 5.87-3.32s2.03-3.6 2.03-6.09c0-1.53-.3-2.85-.9-3.95a8.2 8.2 0 0 0-2.42-2.79c-.45-.3-.91-.56-1.41-.79-.49-.22-1.07-.39-1.73-.53-.67-.14-1.47-.23-2.38-.3-.93-.07-2.03-.11-3.32-.11m-3.58 2.92c1.4 0 2.6.07 3.6.2 1.01.14 1.82.43 2.46.89.63.47 1.1 1.14 1.41 2.02.31.89.46 2.07.46 3.57 0 2.46-.59 4.28-1.78 5.5-1.19 1.21-2.91 1.81-5.16 1.81-.17 0-.35 0-.54-.02-.18-.02-.37-.04-.58-.07 0-4.64.04-9.27.13-13.9m227.12 183.9c.26 1.36.41 2.56.46 3.57.04 1.01-.1 1.87-.44 2.57-.34.71-.91 1.28-1.73 1.75-.81.46-1.96.82-3.43 1.1-2.41.44-4.33.19-5.73-.77-1.4-.95-2.3-2.53-2.71-4.74-.03-.16-.05-.34-.08-.53l-.03-.59c4.56-.84 9.13-1.63 13.69-2.36m-20.86 17.12c2.49-2.35 5.01-4.6 7.56-6.74 1.09 2.4 2.54 4.13 4.33 5.18 1.79 1.06 3.9 1.36 6.35.91 1.5-.27 2.75-.81 3.73-1.6.98-.78 1.75-1.74 2.3-2.89.22-.49.39-.99.52-1.52s.19-1.13.21-1.8q.03-1.02-.12-2.4c-.1-.91-.27-2.01-.5-3.28-.32-1.71-.62-3.13-.92-4.27s-.53-2.17-.69-3.07c-.16-.84-.28-1.6-.35-2.28-.07-.67-.13-1.3-.16-1.89-2.16.54-4.3 1.04-6.45 1.5-2.15.47-4.61.96-7.39 1.47l-6.84 1.26c-2.78.51-5.25.93-7.43 1.27-2.17.32-4.3.61-6.4.86.17.56.32 1.17.44 1.84.13.67.26 1.43.41 2.26.16.84.3 1.59.42 2.26s.21 1.3.24 1.87c2.05-.5 4.15-1 6.3-1.46s4.61-.96 7.39-1.46l2.07-.39.07.46-14.16 11.9c.21.76.38 1.51.52 2.27q.21 1.13.42 2.28c.14.78.28 1.53.42 2.27.14.73.23 1.49.31 2.27 2.44-2.35 4.91-4.71 7.4-7.08M352.16 47.81c1.25.61 2.31 1.18 3.16 1.74q1.26.84 1.83 1.86.54 1.03.39 2.43c-.11.93-.49 2.07-1.13 3.42-1.07 2.21-2.39 3.61-4 4.18-1.59.58-3.4.38-5.43-.59-.15-.08-.31-.16-.47-.26-.16-.09-.33-.2-.5-.32 2-4.18 4.05-8.33 6.15-12.46m-17.42 27.22c.76.36 1.45.7 2.07.99s1.17.6 1.66.91c.79-1.96 1.63-3.95 2.52-5.96s1.94-4.29 3.17-6.83l.91-1.89.41.2 1.28 18.46c.73.28 1.44.58 2.14.91.69.34 1.39.67 2.09 1.01.71.33 1.4.67 2.08.99.67.33 1.35.69 2.02 1.09-.47-3.36-.92-6.75-1.36-10.14-.44-3.41-.78-6.77-1-10.09 2.58.53 4.83.37 6.74-.45 1.9-.82 3.39-2.36 4.46-4.6.67-1.38.97-2.69.91-3.95a8.1 8.1 0 0 0-.98-3.56c-.27-.47-.57-.91-.92-1.32-.36-.42-.79-.83-1.34-1.24-.54-.41-1.21-.84-2.01-1.3-.79-.46-1.78-.97-2.95-1.53-1.56-.75-2.9-1.35-3.99-1.77-1.09-.43-2.06-.85-2.88-1.25-.78-.36-1.46-.72-2.04-1.06-.6-.34-1.14-.67-1.63-.98-.84 2.05-1.7 4.08-2.58 6.1-.89 2-1.95 4.28-3.17 6.83l-3.01 6.27c-1.23 2.54-2.34 4.79-3.35 6.74-1.01 1.96-2.04 3.85-3.07 5.7.55.18 1.13.43 1.74.72.62.3 1.31.63 2.08 1m-49.21-14.09c.83.15 1.58.3 2.25.42.68.13 1.28.28 1.84.46.09-1.58.37-3.68.84-6.29.45-2.62 1.03-5.75 1.71-9.4l.1.02c1.22 2.93 2.39 5.87 3.53 8.8 1.15 2.94 2.33 5.84 3.56 8.71.74.07 1.48.17 2.2.31s1.45.28 2.18.42 1.49.28 2.26.43c.77.14 1.63.34 2.59.59-.51-.93-1.18-2.3-1.98-4.09-.81-1.8-1.67-3.77-2.6-5.9-.93-2.14-1.85-4.31-2.79-6.54-.93-2.21-1.78-4.24-2.54-6.09.82-.68 1.97-1.6 3.44-2.75 1.46-1.17 2.99-2.36 4.6-3.58 1.6-1.22 3.1-2.35 4.52-3.41 1.4-1.04 2.45-1.8 3.12-2.26-.58-.04-1.11-.08-1.61-.13-.49-.04-.97-.11-1.44-.19-.47-.09-.94-.21-1.39-.35-.46-.13-.92-.28-1.37-.43-.56.55-1.44 1.36-2.65 2.43s-2.56 2.24-4.04 3.53c-1.49 1.27-3.05 2.58-4.65 3.92-1.6 1.35-3.11 2.58-4.49 3.7l.91-4.82c.46-2.44.9-4.66 1.34-6.65.43-2 .82-3.49 1.18-4.46-.59-.04-1.21-.1-1.89-.18-.68-.07-1.44-.19-2.27-.35q-1.26-.24-2.25-.51c-.65-.17-1.26-.35-1.82-.52a221 221 0 0 1-2.23 13.97l-1.3 6.83c-.52 2.78-1.02 5.24-1.5 7.39-.48 2.14-.97 4.24-1.5 6.29.58.04 1.21.12 1.88.25.66.13 1.42.27 2.26.43"/></svg>