<svg xmlns="http://www.w3.org/2000/svg" viewBox="0 0 512 512"><title>Le Havre AC</title><path fill="currentColor" d="M460.33 60.45C362.89 46.53 256 0 256 0S149.11 46.53 51.67 60.45C52 60.58-22.54 372.04 256 512 534.54 372.04 459.99 60.58 460.33 60.45M256 496.56C-5.74 365.04 64.31 72.37 64 72.25c91.56-13.08 192-56.81 192-56.81s100.44 43.73 192 56.81c-.31.12 69.73 292.79-192 424.31M124.74 95.41h19.08v47.41h37.76V95.41h19.08v92.64h-19.08v-28.2h-37.76v28.2h-19.08zm131.09-.81h1.64l42.37 93.45h-20.03l-4.36-10.49h-37.61l-4.36 10.49h-18.39zm12.81 67.02-6.68-16.07c-2.72-6.54-5.58-16.62-5.58-16.62-1.53 5.63-3.35 11.18-5.46 16.62l-6.67 16.07zm35.06-19.34c0-27.07 20.43-46.87 46.13-46.87 16.21 0 27.81 5.93 35.85 18.72l-14.1 10.24c-4.22-7-11.47-11.99-21.75-11.99-16.21 0-27.15 12.8-27.15 29.9s10.94 30.16 27.15 30.16c11.6 0 18.06-5.65 23.06-13.46l14.37 10.1c-7.78 12.38-20.17 20.2-37.43 20.2-25.7 0-46.13-19.93-46.13-47m-90.1 283.29v-23.38l-6.63 5.75v-7.62l6.63-5.75h7.14v31zm25.78.27c-5.71 0-10.41-3.1-10.41-9.54a8.01 8.01 0 0 1 3.48-6.66 7.81 7.81 0 0 1-3.18-6.14c0-5.88 4.79-9.19 10.11-9.19 5.31 0 10.1 3.31 10.1 9.19a7.78 7.78 0 0 1-3.18 6.14c2.2 1.5 3.5 4 3.49 6.66 0 6.44-4.71 9.54-10.41 9.54m0-12.98a3.27 3.27 0 1 0 0 6.53c1.8 0 3.26-1.46 3.26-3.26a3.28 3.28 0 0 0-3.26-3.27m0-12.1c-1.64 0-2.96 1.32-2.96 2.96a2.96 2.96 0 1 0 5.92 0 2.94 2.94 0 0 0-2.91-2.96zm32.24 24.81h-7.84l9.67-24.55h-6.62v4.87h-6.8v-11.32h21.26v6.45zm13.46 0v-6.44l11.23-12.19c1.14-1.22 1.57-2 1.57-3.31.15-1.43-.89-2.72-2.32-2.87-.16-.01-.31-.01-.47 0-1.47-.13-2.76.97-2.88 2.44-.02.18-.02.37.01.56h-7.14c0-6.09 4.61-9.45 10.01-9.45 5.75 0 9.93 3.53 9.93 9.36 0 3.27-1.35 5.01-3.83 7.62l-7.4 7.84h11.23v6.44zm-91.43-184.15c-.75-2.96-2.05-5.06-2.38-8.38h.11l.23.22c.72.61 1.44 1.21 2.15 1.82 0-2.55-1.63-6.11-1.02-7.94 2.22 1.04 4.31 2.34 6.24 3.86 1.13 1.28 2.26 2.57 3.4 3.85.21-4.19-.74-8.4-.91-12.58 5.72 1.91 8.51 7.48 10.09 13.37.07-.04.15-.07.22-.11.64-4.33 2.74-10.45 5.67-12.69.9-.51 1.85-.92 2.83-1.25l.57 13.15 2.27-2.84c1.92-2.28 4.43-4 7.25-4.98v.11c-.41 1.34-1.4 6.31-.79 7.82.53-.53 1.06-1.06 1.58-1.59.27-.15.53-.3.8-.45-.93 3.84-2.24 6.28-3.29 9.86l-1.02 5.1c-10.39-3.49-22.06-1.7-33.09-.57v-.23c-.31-1.85-.61-3.7-.91-5.55m48.28 28.44c9.96-.78 13.04-8.12 19.61-12.24 3.65-2.18 7.63-3.75 11.79-4.64 1.85-.23 3.7-.46 5.55-.68 2.25-.04 5.3-.3 7.03.45v.11c-3.36.19-8.93 2.14-10.54 4.31 6.48-1.01 15.77-2.72 22.78-.68 1.82.68 3.6 1.48 5.32 2.38v.11c-3.63.11-7.2 1.04-10.42 2.72-4.8 2.41-8.39 5.91-12.7 8.61-7.05 4.43-20.47 7.88-30.6 4.08-2.87-1.08-6.08-2.32-7.82-4.53M353 324.92a32 32 0 0 0-3.28-7.47l-2.84-3.86c-.98-.79.59-1.85 1.25-2.71-2.12-2.08-5.43-4.98-8.39-6.01.42-1.21.83-2.42 1.25-3.63-4.11-1.17-8.43-2.98-13.26-3.39l.45-4.99c-4.48-1.2-10.41.01-14.85.23l-.34-5.67c-3.02.49-6.04.98-9.06 1.48-3.21.86-6.42 1.73-9.64 2.6-.26-2-.53-4-.79-6-2 .45-4 .9-6.01 1.36-4.08 1.2-8.09 2.63-12.01 4.3-.38-2-.76-4-1.13-6-3.37 1.05-6.73 2.11-10.09 3.17-2.83 1.21-5.67 2.42-8.5 3.62-.27-1.54-.53-3.09-.8-4.64-7.24.82-14.76 4.98-20.74 7.59-.18-.94-.37-1.89-.56-2.83-15.85 2.37-22.55 14.91-37.06 18.58-13.38 3.38-19.81-6.74-22.1-16.32-.72-2.5-.95-5.11-.68-7.7 1.42-8.42 4.82-12.58 12.8-14.39 1.9-.43 5.13-.6 6.92.11 3.97 1.59 5.6 5.87 10.2 6.91 6.48 1.47 23.25-.51 24.48-4.64-1.63-1.4-5.27-1.22-7.6-1.81-2.74-.77-5.31-2.04-7.59-3.74h-.23c1.31-.54 3.75-.23 5.44-.23 5.37 0 10.07.1 13.49-1.93 1.19-.7 2.3-1.11 2.38-2.94-2.19-2.31-6.01-3.34-9.18-4.65-6.86-2.83-13.01-4.94-23.23-4.76-1.33.12-2.65.23-3.97.34-2.53.42-5.06.83-7.59 1.25-10.78 2.69-19.82 6.31-25.39 14.16a40.7 40.7 0 0 0-5.67 12.92c-2.42 8.91-.72 20.59 2.04 27.65 7.77 19.82 27.18 28.64 52.82 30.59 2.08 3.11-1.58 6.57-3.06 8.72-1.88 2.73-4.01 6.74-6.8 8.5l-4.2 1.02c-4.24 1.32-9.08 3.85-10.88 7.59-.19.19-.38.38-.56.57 2.88-.42 5.15-1.85 8.5-1.82.84 1.8-.2 5.33-.8 7.03 4.2-1.75 7.53-6.01 12.58-6.69.99.96 1.02 2.67.8 4.54 2.37-.76 6.89-2.53 7.93-4.65.86-2.11-2.15-4.28-3.4-4.87 1.43-9.65 10.76-12.58 17.57-17-1-5.03-2.35-7.57-1.14-13.71.15.1 1.47 4.44 1.82 4.99a21.7 21.7 0 0 0 8.84 7.48c3.49 1.54 10.95 1.81 15.53.9 11.02-2.18 20.28-5.71 29.46-9.63 3.1 2.67 5.41 6.13 9.98 7.37-2.04 5.7-4.08 11.4-6.12 17.11-6.1 2.06-12.14 3.32-14.74 8.72-.11.11-.22.23-.34.34 2.78-.51 5.27-1.7 8.5-1.7 1.09 2-.42 4.89-.68 6.8 4.27-1.54 7.47-5.77 12.36-6.57 1.29.74 1.03 2.71.9 4.53 2.33-1.13 6.81-2.47 7.94-4.76.98-2.52-3.79-6.31-5.67-6.68.22-8.55 10.02-16.74 15.3-20.74-.4-1.51-1.93-2.71-2.72-3.96-3.15-5.01-5.43-11.1-3.17-18.25.07-.03.15-.07.22-.11.22 4.61 2.37 9.82 6.01 10.99 6.83-1.82 18.41.32 20.85 4.08 1.44 2.2.86 6.03-.34 8.04-3.33 5.64-13.21 4.86-22.21 4.76a21.47 21.47 0 0 0-6.69 9.41v.11c6.71.02 10.72 1.55 18.7 2.15 7.98.61 13.42-.86 16.1-2.04 8.57-3.76 16.77-15.76 12.69-29.12m-144.16-63.78c.25 6.07-7.43 3.73-7.48-1.14 2.81.07 4.96.89 7.48 1.14m78.65 92.23c-14-.77-29.74-.69-39.78 3.62-3.5 1.5-7.69 3.48-8.16 7.93h-.11c-.53-5.85 2.93-7.85 6.46-9.97 8.39-5.05 24.74-7.38 31.39-8.38a100 100 0 0 1 12.92-1.14 33.3 33.3 0 0 0-2.72 7.94M436.71 86.66l-.38-2.32-2.33-.39c-76.25-12.89-154.55-43.89-176.73-53.09l-1.27-.52-1.27.52c-22.18 9.2-100.48 40.2-176.74 53.09l-2.32.39-.39 2.32c-7.57 46.7-7.74 94.29-.52 141.03l-.04.02.47 2.85v.02l.61 3.71.02-.01c.42 2.46.85 4.8 1.28 7.05 9.36 48.61 27.18 92.42 52.96 130.22 30.39 44.53 72.24 81.11 124.39 108.72l1.55.81 1.55-.81c52.15-27.61 94-64.19 124.39-108.72 25.78-37.8 43.6-81.61 52.96-130.22.43-2.25.86-4.59 1.28-7.05l.02.01.61-3.71v-.02l.47-2.85-.04-.02a450.7 450.7 0 0 0-.53-141.03m-8.3 153.42c-9.19 47.72-26.66 90.7-51.94 127.74C347 411.02 306.48 446.6 256 473.6c-50.48-27-91-62.58-120.48-105.78-25.27-37.04-42.74-80.02-51.93-127.74-.47-2.45-.93-5-1.4-7.72 1.26-.38 2.53-.75 3.8-1.12 1.6-.47 3.21-.94 4.83-1.39 1.75-.5 3.52-.97 5.29-1.45a391 391 0 0 1 10.29-2.65c1.65-.41 3.29-.82 4.95-1.22 1.83-.43 3.67-.84 5.5-1.26 1.67-.38 3.33-.76 5-1.12 1.86-.41 3.73-.79 5.6-1.17 1.68-.35 3.35-.7 5.04-1.04 1.89-.37 3.79-.72 5.69-1.07 1.69-.32 3.37-.64 5.07-.95 1.93-.34 3.87-.66 5.8-.98 1.7-.28 3.39-.58 5.09-.85 1.96-.31 3.93-.59 5.9-.89 1.7-.25 3.39-.51 5.1-.75 1.99-.28 4-.54 6-.8 1.7-.22 3.39-.45 5.1-.66 2.02-.25 4.06-.47 6.09-.69 1.7-.2 3.4-.4 5.1-.58 2.06-.21 4.13-.4 6.2-.59 1.69-.16 3.38-.34 5.08-.48 2.11-.19 4.23-.34 6.35-.5 1.66-.13 3.33-.27 5-.39 2.18-.15 4.37-.27 6.56-.4 1.62-.09 3.23-.2 4.85-.29 2.29-.11 4.6-.2 6.89-.3 1.53-.06 3.05-.14 4.58-.19 2.52-.09 5.06-.14 7.58-.2 1.32-.03 2.62-.08 3.94-.1 3.71-.06 7.43-.09 11.15-.1h.77c3.73.01 7.45.04 11.16.1 1.33.02 2.66.07 3.99.1 2.51.06 5.02.11 7.52.2 1.55.05 3.09.13 4.64.2 2.28.09 4.56.18 6.84.29 1.62.09 3.24.2 4.86.3 2.18.12 4.37.24 6.55.39 1.68.12 3.35.26 5.02.39 2.11.16 4.22.32 6.33.5 1.7.14 3.4.32 5.1.48 2.06.19 4.12.38 6.17.59 1.72.18 3.43.39 5.14.58 2.02.23 4.04.44 6.06.69 1.72.21 3.43.45 5.14.67 1.99.26 3.98.51 5.95.79 1.73.24 3.44.5 5.15.76 1.95.29 3.91.57 5.85.88 1.72.27 3.42.57 5.12.85 1.93.33 3.86.64 5.77.98 1.71.31 3.4.63 5.09.95 1.9.35 3.8.7 5.68 1.07 1.69.34 3.37.69 5.05 1.04 1.87.38 3.73.76 5.58 1.16 1.69.37 3.35.75 5.02 1.13 1.83.42 3.66.83 5.48 1.26 1.67.4 3.32.81 4.97 1.22 1.8.44 3.6.89 5.38 1.35 1.64.42 3.27.87 4.91 1.31 1.76.47 3.53.94 5.28 1.43 1.62.46 3.23.93 4.85 1.4 1.26.37 2.52.74 3.78 1.12-.47 2.72-.93 5.27-1.4 7.72m2.47-14.32c-1.11-.33-2.25-.64-3.38-.97-1.63-.48-3.26-.95-4.91-1.41-1.76-.49-3.53-.97-5.31-1.45-1.65-.44-3.31-.89-4.98-1.32-1.79-.46-3.59-.9-5.4-1.35-1.68-.41-3.35-.83-5.04-1.23-1.83-.43-3.66-.85-5.5-1.26-1.7-.39-3.39-.77-5.09-1.14q-2.79-.6-5.61-1.17c-1.7-.35-3.41-.71-5.12-1.05-1.89-.37-3.8-.72-5.7-1.08-1.72-.32-3.44-.64-5.17-.95-1.92-.34-3.85-.66-5.78-.98-1.73-.29-3.46-.59-5.2-.86-1.95-.31-3.91-.6-5.87-.89-1.74-.26-3.48-.53-5.22-.77-1.99-.28-3.98-.53-5.97-.79-1.74-.23-3.48-.46-5.23-.68-2.02-.24-4.05-.46-6.07-.69-1.74-.2-3.47-.4-5.21-.58-2.07-.22-4.14-.4-6.21-.6-1.72-.16-3.44-.34-5.16-.49-2.12-.18-4.24-.33-6.36-.49-1.7-.13-3.39-.28-5.08-.39-2.18-.16-4.37-.28-6.56-.4-1.65-.1-3.3-.21-4.95-.3-2.3-.12-4.61-.2-6.92-.3-1.55-.06-3.09-.14-4.64-.2-2.56-.08-5.13-.14-7.7-.2-1.3-.03-2.6-.07-3.9-.1-3.88-.06-7.76-.1-11.64-.1s-7.76.04-11.64.1c-1.3.03-2.6.07-3.9.1-2.57.06-5.14.12-7.7.2-1.55.06-3.1.14-4.64.2-2.31.1-4.62.18-6.92.3-1.66.09-3.3.2-4.95.3-2.19.12-4.38.24-6.56.4-1.7.11-3.39.26-5.09.39-2.12.16-4.24.31-6.35.49-1.73.15-3.44.33-5.17.49-2.06.2-4.14.38-6.2.6-1.74.18-3.47.38-5.21.58-2.03.23-4.05.45-6.07.69-1.75.22-3.49.45-5.23.68-1.99.26-3.99.51-5.97.79-1.75.24-3.48.51-5.22.77-1.96.29-3.92.58-5.87.89-1.74.27-3.47.57-5.21.86-1.92.32-3.86.64-5.77.98-1.73.31-3.45.63-5.17.95-1.9.36-3.81.71-5.7 1.08-1.71.34-3.42.7-5.12 1.05q-2.82.57-5.61 1.17c-1.7.37-3.39.75-5.09 1.14-1.84.41-3.67.83-5.5 1.26-1.69.4-3.36.81-5.04 1.23-1.81.45-3.61.89-5.4 1.35-1.67.43-3.33.88-4.98 1.32-1.78.48-3.55.96-5.31 1.45-1.65.46-3.28.93-4.91 1.41-1.12.32-2.27.64-3.39.97-6.83-44.98-6.72-90.75.32-135.7C156.24 77.08 232.32 47.25 256 37.49c23.68 9.76 99.76 39.59 174.57 52.57 7.04 44.95 7.14 90.72.31 135.7"/></svg>